<svg xmlns="http://www.w3.org/2000/svg" viewBox="0 0 800 500" width="800" height="500">
  <rect width="800" height="500" fill="#090d10"/>
  <!-- Grid background -->
  <g opacity="0.08" stroke="#2ee56b">
    <line x1="0" y1="100" x2="800" y2="100"/>
    <line x1="0" y1="250" x2="800" y2="250"/>
    <line x1="0" y1="400" x2="800" y2="400"/>
    <line x1="200" y1="0" x2="200" y2="500"/>
    <line x1="400" y1="0" x2="400" y2="500"/>
    <line x1="600" y1="0" x2="600" y2="500"/>
  </g>

  <!-- Phone 1 (Angled left) -->
  <g transform="translate(180, 50) rotate(-6)">
    <rect width="210" height="400" rx="30" fill="#151b20" stroke="#374151" stroke-width="3"/>
    <rect x="10" y="15" width="190" height="370" rx="22" fill="#07090a"/>
    <!-- UI Elements -->
    <text x="25" y="55" font-family="sans-serif" font-size="18" font-weight="bold" fill="#ffffff">VO <tspan fill="#2ee56b">Pay</tspan></text>
    <rect x="25" y="80" width="160" height="90" rx="14" fill="#1b242a" stroke="#2ee56b" stroke-width="1"/>
    <text x="40" y="115" font-family="sans-serif" font-size="11" fill="#9ca3af">Total Balance</text>
    <text x="40" y="145" font-family="sans-serif" font-size="20" font-weight="bold" fill="#2ee56b">$18,420.50</text>
    
    <!-- Action buttons -->
    <circle cx="55" cy="205" r="20" fill="#2ee56b"/>
    <circle cx="105" cy="205" r="20" fill="#1f2937"/>
    <circle cx="155" cy="205" r="20" fill="#1f2937"/>
    <rect x="25" y="250" width="160" height="40" rx="10" fill="#12181d"/>
    <rect x="25" y="300" width="160" height="40" rx="10" fill="#12181d"/>
  </g>

  <!-- Phone 2 (Centered front) -->
  <g transform="translate(420, 40) rotate(4)">
    <rect width="220" height="420" rx="32" fill="#192128" stroke="#2ee56b" stroke-width="2" filter="drop-shadow(0 15px 30px rgba(0,0,0,0.8))"/>
    <rect x="10" y="15" width="200" height="390" rx="24" fill="#0a0e11"/>
    <!-- Dynamic island -->
    <rect x="75" y="24" width="70" height="18" rx="9" fill="#000000"/>
    
    <text x="30" y="75" font-family="sans-serif" font-size="16" font-weight="bold" fill="#ffffff">Activity Tracker</text>
    <!-- Circular progress ring in UI -->
    <circle cx="110" cy="165" r="55" fill="none" stroke="#1f2937" stroke-width="12"/>
    <circle cx="110" cy="165" r="55" fill="none" stroke="#2ee56b" stroke-width="12" stroke-dasharray="260 360" stroke-linecap="round"/>
    <text x="92" y="165" font-family="sans-serif" font-size="20" font-weight="bold" fill="#ffffff">84%</text>
    <text x="85" y="185" font-family="sans-serif" font-size="10" fill="#2ee56b">Completed</text>

    <!-- Cards below -->
    <rect x="25" y="250" width="170" height="50" rx="12" fill="#141c22" stroke="#2ee56b" stroke-width="0.8"/>
    <rect x="25" y="315" width="170" height="50" rx="12" fill="#141c22"/>
  </g>
</svg>