<svg xmlns="http://www.w3.org/2000/svg" viewBox="0 0 800 500" width="800" height="500">
  <rect width="800" height="500" fill="#080c10"/>
  <!-- Neural Network Constellation -->
  <g stroke="#2ee56b" stroke-opacity="0.25" stroke-width="1.5">
    <line x1="200" y1="150" x2="350" y2="100"/>
    <line x1="200" y1="150" x2="300" y2="250"/>
    <line x1="350" y1="100" x2="480" y2="180"/>
    <line x1="300" y1="250" x2="480" y2="180"/>
    <line x1="300" y1="250" x2="420" y2="350"/>
    <line x1="480" y1="180" x2="600" y2="150"/>
    <line x1="480" y1="180" x2="580" y2="300"/>
    <line x1="420" y1="350" x2="580" y2="300"/>
  </g>

  <!-- Glowing Neural Nodes -->
  <g fill="#2ee56b">
    <circle cx="200" cy="150" r="10"/>
    <circle cx="350" cy="100" r="14"/>
    <circle cx="300" cy="250" r="12"/>
    <circle cx="480" cy="180" r="22" fill="#ffffff" stroke="#2ee56b" stroke-width="4"/>
    <circle cx="420" cy="350" r="12"/>
    <circle cx="600" cy="150" r="10"/>
    <circle cx="580" cy="300" r="16"/>
  </g>

  <text x="480" y="186" text-anchor="middle" font-family="sans-serif" font-size="14" font-weight="bold" fill="#07090a">AI</text>
  <text x="400" y="440" text-anchor="middle" font-family="sans-serif" font-size="18" font-weight="bold" letter-spacing="4" fill="#ffffff">GENERATIVE WORKFLOWS &amp; AGENTS</text>
</svg>